<?xml version="1.0" standalone="no"?>
<!DOCTYPE svg PUBLIC "-//W3C//DTD SVG 20010904//EN"
 "http://www.w3.org/TR/2001/REC-SVG-20010904/DTD/svg10.dtd">
<svg version="1.0" xmlns="http://www.w3.org/2000/svg"
 width="260.000000pt" height="260.000000pt" viewBox="0 0 260.000000 260.000000"
 preserveAspectRatio="xMidYMid meet">
<metadata>
Created by potrace 1.11, written by Peter Selinger 2001-2013
</metadata>
<g transform="translate(0.000000,260.000000) scale(0.100000,-0.100000)"
fill="#000000" stroke="none">
<path d="M265 2008 c-76 -28 -115 -80 -115 -153 0 -74 48 -124 158 -166 35
-13 72 -32 83 -42 27 -25 24 -63 -5 -83 -30 -19 -114 -18 -165 3 -46 18 -47
18 -65 -28 -16 -39 -16 -42 1 -55 24 -18 103 -34 164 -34 160 0 245 88 210
217 -15 53 -50 83 -148 123 -107 44 -133 79 -85 118 21 16 90 15 140 -2 l40
-14 17 44 c9 25 16 46 14 48 -44 29 -192 44 -244 24z"/>
<path d="M784 2004 c-57 -20 -118 -75 -146 -132 -33 -67 -33 -216 -1 -283 50
-99 129 -140 265 -135 56 2 97 9 124 22 l42 19 -18 42 -19 41 -47 -14 c-63
-19 -122 -18 -164 4 -101 50 -109 266 -13 329 34 23 122 26 176 7 22 -8 41
-13 42 -12 5 7 25 72 25 82 0 35 -191 56 -266 30z"/>
<path d="M1143 1735 l-1 -275 63 0 63 0 0 103 c0 56 0 108 1 115 1 9 29 12
104 12 l102 0 -1 -115 -2 -115 63 0 62 0 0 275 -1 275 -62 0 -62 0 0 -92 c0
-51 0 -101 -1 -110 -1 -16 -13 -18 -101 -18 -97 0 -100 1 -101 23 -1 12 -1 61
-1 110 l-1 87 -62 0 -62 0 0 -275z"/>
<path d="M1723 1735 l0 -275 193 0 194 0 0 50 0 49 -132 3 -131 3 -1 58 c-1
32 1 63 4 67 3 5 53 11 110 12 l105 3 0 45 0 45 -109 5 -110 5 1 40 c1 22 1
46 2 53 1 9 32 12 121 12 129 0 122 -3 122 55 0 14 0 30 -1 35 -1 6 -69 10
-184 10 l-184 0 0 -275z"/>
<path d="M205 1111 l-30 -6 -2 -263 c-1 -238 0 -264 15 -270 9 -4 73 -7 142
-7 134 1 179 14 240 68 103 91 110 305 14 403 -56 58 -113 77 -239 80 -60 1
-123 -1 -140 -5z m254 -118 c89 -65 85 -253 -8 -306 -17 -11 -58 -21 -91 -24
-51 -5 -60 -3 -61 11 0 9 -1 81 -1 161 0 80 1 155 1 166 1 21 5 21 67 16 43
-3 76 -12 93 -24z"/>
<path d="M746 918 c1 -163 5 -211 18 -242 29 -69 88 -106 181 -113 79 -7 137
10 184 53 55 49 63 90 65 314 l1 190 -62 0 -63 0 0 -192 c0 -173 -2 -196 -19
-225 -35 -56 -127 -56 -162 0 -17 29 -19 52 -19 225 l0 192 -63 0 -63 0 2
-202z"/>
<path d="M1312 845 l0 -275 184 0 184 0 0 50 0 50 -119 0 c-105 0 -119 2 -123
18 -2 9 -3 110 -2 225 l1 207 -62 0 -62 0 -1 -275z"/>
<path d="M1753 845 l0 -275 194 0 193 0 0 50 0 50 -130 0 c-97 0 -130 3 -131
13 0 6 -2 38 -2 70 l-2 57 110 0 110 0 1 50 0 50 -108 0 c-114 0 -110 -2 -110
50 0 64 -9 60 122 60 66 0 120 3 121 8 2 10 2 65 0 80 -1 9 -45 12 -185 12
l-183 0 0 -275z"/>
</g>
</svg>
